<?xml version="1.0" encoding="utf-8"?>
<!-- Generator: Adobe Illustrator 16.0.0, SVG Export Plug-In . SVG Version: 6.00 Build 0)  -->
<!DOCTYPE svg PUBLIC "-//W3C//DTD SVG 1.1//EN" "http://www.w3.org/Graphics/SVG/1.1/DTD/svg11.dtd">
<svg version="1.1" id="Layer_1" xmlns="http://www.w3.org/2000/svg" xmlns:xlink="http://www.w3.org/1999/xlink" x="0px" y="0px"
	 width="625px" height="135px" viewBox="-96.5 406 625 135" enable-background="new -96.5 406 625 135" xml:space="preserve">
<g id="_x23_fefffeff">
	<path fill="#FEFFFE" d="M-29.734,427.539c9.083-0.74,18.372,1.271,26.349,5.668c13.604,7.331,23.243,21.629,24.611,37.061
		c1.031,9.511-1,19.31-5.626,27.673c-4.629,8.426-11.872,15.401-20.493,19.67c-6.765,3.409-14.38,5.133-21.958,4.967
		c-10.379-0.088-20.656-3.801-28.781-10.246c-6.992-5.549-12.401-13.066-15.362-21.494c-4.617-12.959-3.257-27.94,3.786-39.779
		c4.729-8.207,12.021-14.885,20.547-18.993C-41.361,429.527-35.596,427.959-29.734,427.539 M-38.149,432.062
		c-8.192,2.212-15.84,7.03-20.698,14.071c-3.272,4.629-5.155,10.109-6.122,15.658c-0.459,3.463-0.65,7.239,1.082,10.402
		c0.801,1.571,2.2,2.76,2.889,4.391c0.656,1.447,0.19,3.406-1.221,4.23c-1.323,0.948-3.194,0.586-4.39-0.402
		c-1.726-1.354-2.457-3.562-2.825-5.646c-0.729-4.694,0.217-9.444,1.414-13.979c-0.937,0.391-0.801,1.686-1.154,2.508
		c-2.046,7.932-2.031,16.41,0.211,24.301c2.118,7.535,6.442,14.533,12.685,19.332c4.702,3.722,10.464,5.836,16.295,6.98
		c3.518,0.592,7.343,0.828,10.639-0.773c1.635-0.819,2.859-2.246,4.46-3.112c1.348-0.701,3.104-0.472,4.158,0.641
		c1.218,1.215,1.238,3.297,0.247,4.656c-1.069,1.457-2.792,2.268-4.493,2.733c-3.753,0.941-7.678,0.519-11.434-0.166
		c-1.375-0.217-2.677-0.826-4.082-0.823c0.752,0.743,1.855,0.872,2.825,1.163c7.37,1.814,15.192,1.828,22.574,0.062
		c8.494-2.043,16.532-6.822,21.578-14.066c3.27-4.496,5.07-9.866,6.183-15.264c0.592-3.986,0.892-8.492-1.529-11.967
		c-1.127-1.658-2.938-3.254-2.574-5.469c0.154-2.07,2.472-3.38,4.375-2.705c2.487,0.807,3.65,3.473,4.158,5.836
		c0.967,4.895,0.006,9.926-1.287,14.666c0.338-0.052,0.547-0.242,0.625-0.568c2.23-6.961,2.617-14.471,1.33-21.655
		c-1.478-8.421-5.37-16.634-11.845-22.354c-3.887-3.545-8.676-6.043-13.74-7.424c-4.218-1.254-8.784-2.121-13.138-1.043
		c-2.143,0.469-3.808,1.971-5.524,3.229c-1.453,1.121-3.78,1.196-5.091-0.189c-1.182-1.258-1.073-3.336-0.054-4.659
		c1.354-1.783,3.592-2.607,5.726-2.992c3.406-0.508,6.886-0.175,10.247,0.496c1.333,0.229,2.577,0.843,3.935,0.943
		c-0.281-0.236-0.557-0.499-0.913-0.611C-20.847,429.842-29.839,429.742-38.149,432.062z"/>
	<path fill="#FEFFFE" d="M-37.025,448.908c1.837-0.967,4.185-1.258,6.059-0.236c1.499,0.858,2.084,2.717,1.937,4.357
		c-0.266,3.258-1.84,6.262-3.819,8.805c-2.139,2.588-4.777,4.877-7.938,6.104c0.242,1.01,1.003,2.086,2.146,2.079
		c2,0.072,3.735-1.19,5.173-2.446c1.034-0.786,1.088-2.161,1.571-3.271c0.704-1.733,1.662-3.584,3.409-4.461
		c0.819-0.435,2.07-0.52,2.635,0.354c0.617,1.18,0.058,2.528-0.535,3.596c-0.81,1.548-2.091,2.76-3.109,4.152
		c-0.384,1.293-0.453,2.651-0.478,3.993c1.414-0.625,2.683-1.517,4.016-2.29c2.317-1.498,4.723-2.895,6.874-4.629
		c0.248-0.837-0.091-1.749-0.052-2.619c-0.133-4.213,1.324-8.529,4.194-11.646c1.786-1.883,4.476-3.21,7.104-2.548
		c1.578,0.287,2.813,1.568,3.258,3.075c0.562,2.274-0.218,4.653-1.414,6.591c-2.061,3.224-5.059,5.687-8.092,7.953
		c0.404,1.009,0.981,2.153,2.072,2.528c1.562-0.3,3.152-0.726,4.75-0.407c1.07,0.224,2.354,0.544,2.877,1.609
		c0.483,1.039-0.44,2.104-1.39,2.428c-2.019,0.658-4.155,0.286-6.216,0.13c-2.453,0.586-4.587,2.209-6.116,4.186
		c-2.375,3.121-3.108,7.252-2.593,11.08c0.493,3.176,2.089,6.375,4.893,8.103c3.158,2.021,7.709,1.592,10.325-1.138
		c2.469-2.547,3.248-6.604,1.873-9.875c-0.583-1.438-1.837-2.664-3.408-2.91c-1.834-0.414-4.013,0.779-4.278,2.729
		c-0.267,1.5,0.785,2.74,1.674,3.813c0.686,0.709,0.768,2.021-0.085,2.636c-1.32,0.901-3.151,0.268-4.203-0.779
		c-2.596-2.562-2.514-7.189-0.027-9.807c3.161-3.625,9.455-3.695,12.688-0.123c3.457,3.828,3.892,9.965,1.232,14.354
		c-1.994,3.443-5.59,5.93-9.542,6.492c-4.3,0.639-8.944-0.725-11.966-3.912c-5.911-6.02-5.817-16.604-0.179-22.771
		c1.508-1.806,3.499-3.089,5.497-4.279c-0.433-0.583-0.886-1.15-1.345-1.716c-3.88,2.812-7.938,5.37-12.114,7.718
		c-0.707,0.26-0.58,1.111-0.683,1.713c-0.372,5.139-0.81,10.496-3.366,15.09c-1.729,3.246-4.342,6.219-7.847,7.556
		c-2.78,1.049-6.143,1.143-8.693-0.548c-2.441-1.532-3.55-4.59-3.363-7.377c0.387-3.545,2.402-6.743,4.965-9.147
		c3.517-3.213,7.781-5.435,11.966-7.64c0.852-0.475,1.78-0.834,2.541-1.446c0.281-0.769,0.323-1.595,0.402-2.396
		c-2.169,1.312-4.91,2.365-7.406,1.359c-2.04-0.785-3.309-2.738-3.958-4.738c-1.925-0.205-3.862-0.973-5.088-2.524
		c-2.14-2.566-2.275-6.468-0.729-9.358c0.517-1.042,1.677-1.602,2.813-1.532c0.22,0.447,0.634,0.893,0.483,1.437
		c-0.338,1.877-0.998,3.824-0.375,5.727c0.309,1.299,1.384,2.335,2.72,2.514c0.284-3.075,0.882-6.164,2.33-8.93
		C-41.594,452.975-39.732,450.367-37.025,448.908 M-35.215,451.918c-1.825,1.242-2.938,3.227-3.898,5.158
		c-1.034,2.178-1.868,4.52-1.961,6.949c0.698-0.31,1.357-0.71,1.922-1.228c2.285-1.988,4.282-4.356,5.62-7.089
		c0.472-0.988,0.879-2.109,0.611-3.216C-33.269,451.598-34.481,451.361-35.215,451.918 M-11.595,452.866
		c-2.133,2.482-3.305,5.777-3.27,9.05c2.406-1.984,4.624-4.312,6.119-7.07c0.43-0.883,0.998-2.324-0.091-2.967
		C-9.828,451.367-10.945,452.117-11.595,452.866 M-43.941,484.609c-2.097,1.883-4.143,4.075-4.904,6.858
		c-0.366,1.492-0.45,3.377,0.804,4.49c1.323,1.207,3.318,0.848,4.847,0.273c2.949-1.136,4.729-3.99,5.929-6.765
		c1.399-3.444,2.266-7.113,2.62-10.815C-37.995,480.201-41.123,482.236-43.941,484.609z"/>
</g>
<g id="_x23_000000ff">
	<path d="M-29.722,425.14c9.866-0.753,19.934,1.555,28.498,6.507c6.85,3.948,12.772,9.521,17.061,16.172
		c5.324,8.132,8.14,17.863,8.059,27.581c-0.063,10.155-3.297,20.274-9.204,28.547C8.7,512.426-0.012,518.96-9.844,522.301
		c-8.732,3.021-18.302,3.496-27.313,1.479c-9.449-2.107-18.227-7.078-24.94-14.049c-7.116-7.369-11.933-16.964-13.404-27.113
		c-1.447-9.041-0.25-18.471,3.282-26.907c3.278-7.848,8.618-14.804,15.302-20.052C-49.172,429.549-39.569,425.822-29.722,425.14
		 M-29.734,427.539c-5.862,0.42-11.627,1.988-16.927,4.523c-8.527,4.108-15.818,10.786-20.547,18.993
		c-7.043,11.838-8.403,26.82-3.786,39.779c2.961,8.428,8.37,15.945,15.362,21.494c8.125,6.445,18.402,10.158,28.781,10.246
		c7.578,0.166,15.193-1.558,21.958-4.967c8.621-4.269,15.864-11.244,20.493-19.671c4.626-8.362,6.657-18.161,5.626-27.672
		c-1.368-15.432-11.008-29.729-24.611-37.061C-11.362,428.811-20.651,426.799-29.734,427.539z"/>
	<path d="M-38.149,432.062c8.31-2.32,17.302-2.222,25.521,0.432c0.356,0.112,0.632,0.375,0.913,0.611
		c-1.357-0.102-2.602-0.715-3.935-0.943c-3.36-0.671-6.841-1.004-10.247-0.496c-2.133,0.385-4.372,1.209-5.726,2.992
		c-1.019,1.323-1.127,3.401,0.054,4.659c1.312,1.387,3.638,1.312,5.091,0.189c1.716-1.26,3.381-2.762,5.524-3.229
		c4.354-1.078,8.92-0.211,13.138,1.043c5.064,1.381,9.854,3.879,13.74,7.424c6.475,5.721,10.367,13.934,11.845,22.354
		c1.287,7.186,0.9,14.694-1.33,21.655c-0.078,0.326-0.287,0.519-0.625,0.568c1.293-4.74,2.254-9.771,1.287-14.666
		c-0.508-2.363-1.671-5.029-4.158-5.836c-1.903-0.675-4.221,0.635-4.375,2.705c-0.363,2.215,1.447,3.811,2.574,5.469
		c2.421,3.475,2.121,7.979,1.529,11.967c-1.112,5.396-2.913,10.769-6.183,15.264c-5.046,7.244-13.084,12.023-21.578,14.066
		c-7.382,1.766-15.204,1.752-22.574-0.062c-0.97-0.291-2.073-0.421-2.825-1.164c1.405-0.002,2.708,0.606,4.082,0.823
		c3.756,0.685,7.681,1.107,11.434,0.166c1.701-0.467,3.423-1.276,4.493-2.733c0.991-1.359,0.971-3.441-0.247-4.656
		c-1.055-1.111-2.81-1.342-4.158-0.641c-1.601,0.866-2.825,2.293-4.46,3.112c-3.296,1.603-7.122,1.365-10.639,0.773
		c-5.832-1.146-11.594-3.26-16.295-6.98c-6.243-4.799-10.567-11.797-12.685-19.332c-2.242-7.891-2.257-16.368-0.211-24.301
		c0.354-0.822,0.217-2.117,1.154-2.508c-1.197,4.533-2.143,9.283-1.414,13.979c0.368,2.084,1.1,4.293,2.825,5.646
		c1.196,0.988,3.067,1.352,4.39,0.402c1.411-0.824,1.876-2.783,1.221-4.23c-0.688-1.631-2.088-2.818-2.889-4.391
		c-1.731-3.163-1.541-6.939-1.082-10.402c0.967-5.549,2.85-11.029,6.122-15.658C-53.989,439.094-46.341,434.274-38.149,432.062
		 M-37.025,448.908c-2.708,1.459-4.569,4.065-5.932,6.756c-1.447,2.766-2.046,5.854-2.33,8.93c-1.335-0.179-2.411-1.215-2.72-2.514
		c-0.623-1.901,0.037-3.85,0.375-5.728c0.151-0.544-0.263-0.987-0.483-1.436c-1.136-0.069-2.297,0.49-2.813,1.532
		c-1.547,2.892-1.411,6.792,0.729,9.357c1.227,1.554,3.164,2.32,5.088,2.525c0.649,2,1.918,3.953,3.958,4.738
		c2.496,1.006,5.236-0.049,7.406-1.359c-0.079,0.803-0.121,1.629-0.402,2.396c-0.761,0.612-1.689,0.973-2.541,1.446
		c-4.185,2.205-8.449,4.427-11.966,7.64c-2.562,2.403-4.578,5.604-4.965,9.147c-0.187,2.787,0.922,5.844,3.363,7.377
		c2.55,1.689,5.914,1.597,8.693,0.547c3.505-1.336,6.119-4.309,7.847-7.555c2.556-4.594,2.995-9.951,3.366-15.09
		c0.103-0.603-0.024-1.453,0.683-1.713c4.176-2.349,8.234-4.904,12.114-7.718c0.459,0.564,0.912,1.133,1.345,1.716
		c-1.998,1.19-3.989,2.475-5.497,4.278c-5.638,6.166-5.732,16.752,0.179,22.771c3.021,3.188,7.666,4.551,11.966,3.912
		c3.952-0.562,7.548-3.049,9.542-6.492c2.659-4.389,2.225-10.525-1.232-14.354c-3.233-3.572-9.527-3.503-12.688,0.122
		c-2.486,2.617-2.568,7.244,0.027,9.808c1.052,1.047,2.883,1.682,4.203,0.779c0.853-0.613,0.771-1.927,0.085-2.636
		c-0.889-1.074-1.94-2.313-1.674-3.813c0.266-1.949,2.444-3.144,4.278-2.729c1.571,0.246,2.825,1.474,3.408,2.91
		c1.375,3.271,0.596,7.328-1.873,9.875c-2.616,2.729-7.167,3.158-10.325,1.137c-2.804-1.727-4.399-4.926-4.893-8.102
		c-0.516-3.828,0.218-7.959,2.593-11.08c1.529-1.977,3.663-3.6,6.116-4.186c2.061,0.156,4.197,0.528,6.216-0.131
		c0.949-0.322,1.873-1.388,1.39-2.427c-0.522-1.065-1.807-1.387-2.877-1.609c-1.598-0.317-3.188,0.107-4.75,0.407
		c-1.091-0.375-1.668-1.521-2.072-2.528c3.033-2.268,6.031-4.729,8.092-7.953c1.196-1.938,1.977-4.315,1.414-6.591
		c-0.444-1.508-1.68-2.788-3.258-3.075c-2.628-0.662-5.317,0.665-7.104,2.548c-2.87,3.115-4.327,7.433-4.194,11.645
		c-0.039,0.871,0.3,1.783,0.052,2.62c-2.151,1.734-4.557,3.13-6.874,4.629c-1.333,0.773-2.602,1.665-4.016,2.29
		c0.024-1.342,0.094-2.7,0.478-3.994c1.019-1.393,2.299-2.604,3.109-4.151c0.592-1.066,1.151-2.416,0.535-3.596
		c-0.565-0.873-1.816-0.788-2.635-0.354c-1.747,0.877-2.705,2.727-3.409,4.461c-0.483,1.108-0.538,2.483-1.571,3.271
		c-1.438,1.256-3.172,2.52-5.173,2.446c-1.142,0.006-1.904-1.069-2.146-2.079c3.161-1.228,5.799-3.517,7.938-6.104
		c1.979-2.543,3.554-5.547,3.819-8.805c0.148-1.642-0.438-3.499-1.937-4.357C-32.84,447.65-35.188,447.941-37.025,448.908z"/>
	<path d="M-35.215,451.918c0.734-0.557,1.946-0.32,2.293,0.576c0.269,1.105-0.139,2.228-0.611,3.216
		c-1.338,2.731-3.335,5.101-5.62,7.089c-0.565,0.518-1.224,0.918-1.922,1.228c0.094-2.431,0.928-4.771,1.961-6.949
		C-38.152,455.145-37.04,453.16-35.215,451.918z"/>
	<path d="M-11.595,452.866c0.65-0.749,1.768-1.499,2.759-0.987c1.089,0.644,0.521,2.084,0.091,2.967
		c-1.495,2.76-3.713,5.086-6.119,7.07C-14.9,458.645-13.728,455.35-11.595,452.866z"/>
	<path d="M-43.941,484.609c2.819-2.373,5.946-4.408,9.294-5.957c-0.354,3.703-1.221,7.371-2.62,10.815
		c-1.2,2.773-2.979,5.629-5.929,6.765c-1.529,0.573-3.523,0.934-4.847-0.273c-1.254-1.113-1.169-2.998-0.804-4.49
		C-48.084,488.686-46.039,486.492-43.941,484.609z"/>
</g>
<g enable-background="new    ">
	<path d="M67.578,485.001c0,1.435-0.39,2.613-1.169,3.534s-2.231,1.793-4.357,2.616c-2.125,0.823-4.64,1.235-7.544,1.235
		c-5.137,0-9.223-1.687-12.261-5.061s-4.556-7.939-4.556-13.695c0-5.897,1.625-10.591,4.875-14.08
		c3.25-3.488,7.39-5.233,12.42-5.233c2.78,0,5.061,0.328,6.841,0.983c1.78,0.655,3.082,1.311,3.905,1.966
		c0.823,0.655,1.235,1.354,1.235,2.099c0,0.762-0.266,1.479-0.797,2.151c-0.531,0.674-1.133,1.01-1.806,1.01
		c-0.584,0-1.24-0.194-1.966-0.584c-2.568-1.311-4.977-1.967-7.226-1.967c-3.383,0-6.124,1.205-8.222,3.613
		c-2.099,2.409-3.148,5.721-3.148,9.936c0,4.198,1.005,7.448,3.016,9.75c2.01,2.303,4.83,3.454,8.461,3.454
		c1.275,0,2.479-0.168,3.613-0.505c1.133-0.337,1.846-0.655,2.139-0.957c0.292-0.301,0.438-0.734,0.438-1.302v-7.013h-6.083
		c-0.939,0-1.63-0.199-2.072-0.598c-0.443-0.398-0.664-1.165-0.664-2.299c0-0.991,0.221-1.7,0.664-2.125
		c0.442-0.425,1.169-0.638,2.179-0.638h9.085c2.001,0,3.002,0.921,3.002,2.763V485.001z"/>
	<path d="M81.765,469.779h10.892c1.08,0,1.895,0.172,2.444,0.518s0.824,1.094,0.824,2.245c0,1.099-0.239,1.855-0.717,2.271
		s-1.328,0.624-2.55,0.624H81.765v9.883c0,0.584,0.256,0.877,0.771,0.877h11.742c1.169,0,2.014,0.186,2.537,0.558
		c0.522,0.372,0.784,1.107,0.784,2.205s-0.239,1.855-0.717,2.271c-0.479,0.416-1.346,0.624-2.604,0.624H80.516
		c-1.523,0-2.71-0.402-3.56-1.209c-0.85-0.806-1.275-1.926-1.275-3.36v-27.363c0-3.383,1.718-5.074,5.154-5.074h13.548
		c1.169,0,1.997,0.187,2.484,0.558c0.487,0.372,0.73,1.116,0.73,2.232c0,1.168-0.252,1.938-0.757,2.311s-1.324,0.559-2.458,0.559
		H82.694c-0.266,0-0.487,0.097-0.664,0.292c-0.177,0.195-0.266,0.442-0.266,0.743V469.779z"/>
	<path d="M121.694,491.855c-1.541,0-2.732-0.398-3.573-1.195c-0.841-0.797-1.262-1.922-1.262-3.374v-27.363
		c0-1.683,0.43-2.949,1.289-3.799c0.859-0.851,2.147-1.275,3.866-1.275h7.358c5.331,0,9.546,1.634,12.646,4.901
		s4.649,7.603,4.649,13.004c0,5.827-1.537,10.468-4.609,13.921c-3.073,3.454-7.302,5.181-12.686,5.181H121.694z M122.942,485.32
		c0,0.584,0.256,0.877,0.771,0.877h5.34c3.666,0,6.504-1.165,8.514-3.494c2.01-2.328,3.015-5.574,3.015-9.736
		c0-3.896-1.009-6.947-3.028-9.152s-4.853-3.307-8.501-3.307h-5.181c-0.266,0-0.487,0.097-0.664,0.292
		c-0.177,0.195-0.266,0.442-0.266,0.743V485.32z"/>
	<path d="M155.911,452.67c0.921,0,1.714,0.332,2.378,0.997c0.664,0.664,0.996,1.456,0.996,2.377s-0.332,1.705-0.996,2.352
		s-1.457,0.97-2.378,0.97s-1.705-0.323-2.351-0.97s-0.97-1.431-0.97-2.352s0.328-1.713,0.983-2.377
		C154.228,453.002,155.007,452.67,155.911,452.67z M158.913,489.783c0,1.665-1.019,2.497-3.055,2.497
		c-1.966,0-2.949-0.832-2.949-2.497V466.06c0-0.832,0.226-1.438,0.678-1.819s1.226-0.571,2.324-0.571
		c1.08,0,1.851,0.195,2.312,0.584c0.46,0.39,0.69,0.992,0.69,1.807V489.783z"/>
	<path d="M189.146,489.358c0,4.428-1.147,7.863-3.44,10.308c-2.294,2.444-5.548,3.666-9.763,3.666c-2.019,0-4.131-0.435-6.336-1.302
		c-2.205-0.868-3.308-2.011-3.308-3.427c0-0.762,0.252-1.453,0.757-2.072c0.504-0.62,1.084-0.93,1.74-0.93
		c0.514,0,1.054,0.15,1.621,0.451c1.257,0.673,2.298,1.146,3.122,1.422c0.824,0.274,1.731,0.411,2.723,0.411
		c2.267,0,3.985-0.69,5.154-2.072c1.169-1.381,1.753-3.409,1.753-6.083v-1.249c-1.523,2.604-4.012,3.905-7.465,3.905
		c-3.312,0-5.977-1.302-7.996-3.905s-3.029-6.119-3.029-10.547c0-4.356,1.049-7.841,3.148-10.453
		c2.099-2.612,4.911-3.919,8.435-3.919c3.011,0,5.313,1.195,6.907,3.586v-0.982c0-1.665,1.018-2.497,3.055-2.497
		c1.948,0,2.922,0.832,2.922,2.497V489.358z M183.168,475.756c0-1.947-0.545-3.56-1.634-4.835c-1.089-1.274-2.537-1.912-4.344-1.912
		c-2.055,0-3.648,0.806-4.782,2.417c-1.134,1.612-1.7,3.782-1.7,6.509c0,2.852,0.575,5.07,1.727,6.655s2.736,2.378,4.755,2.378
		c1.842,0,3.298-0.646,4.37-1.939c1.071-1.293,1.607-2.896,1.607-4.809V475.756z"/>
	<path d="M199.771,452.67c0.921,0,1.714,0.332,2.378,0.997c0.664,0.664,0.996,1.456,0.996,2.377s-0.332,1.705-0.996,2.352
		s-1.457,0.97-2.378,0.97s-1.705-0.323-2.351-0.97s-0.97-1.431-0.97-2.352s0.328-1.713,0.983-2.377
		C198.089,453.002,198.868,452.67,199.771,452.67z M202.773,489.783c0,1.665-1.019,2.497-3.055,2.497
		c-1.966,0-2.949-0.832-2.949-2.497V466.06c0-0.832,0.226-1.438,0.678-1.819s1.226-0.571,2.324-0.571
		c1.08,0,1.851,0.195,2.312,0.584c0.46,0.39,0.69,0.992,0.69,1.807V489.783z"/>
	<path d="M217.784,469.168v14.585c0,0.956,0.204,1.705,0.611,2.245s1,0.81,1.78,0.81c0.513,0,1.053-0.106,1.621-0.318
		c0.885-0.336,1.523-0.505,1.913-0.505c0.602,0,1.125,0.306,1.567,0.916c0.442,0.611,0.664,1.28,0.664,2.006
		c0,0.815-0.341,1.457-1.023,1.927c-0.682,0.469-1.514,0.846-2.497,1.129s-2.006,0.425-3.068,0.425c-2.55,0-4.446-0.694-5.685-2.085
		c-1.24-1.391-1.86-3.538-1.86-6.442v-14.691h-1.913c-0.957,0-1.63-0.155-2.019-0.465c-0.39-0.31-0.584-1.005-0.584-2.086
		c0-1.044,0.186-1.722,0.558-2.032c0.372-0.31,1.053-0.465,2.045-0.465h1.913v-5.658c0-0.921,0.221-1.571,0.664-1.953
		c0.443-0.38,1.196-0.571,2.258-0.571c1.151,0,1.948,0.191,2.391,0.571c0.442,0.382,0.664,1.032,0.664,1.953v5.658h4.995
		c0.92,0,1.549,0.173,1.886,0.519c0.336,0.345,0.504,1.005,0.504,1.979c0,0.939-0.177,1.599-0.531,1.979
		c-0.354,0.381-0.974,0.571-1.859,0.571H217.784z"/>
	<path d="M246.661,488.375c-1.453,2.675-3.941,4.012-7.465,4.012c-3.312,0-5.977-1.302-7.996-3.905s-3.029-6.119-3.029-10.547
		c0-4.356,1.049-7.841,3.148-10.453c2.099-2.612,4.911-3.919,8.435-3.919c3.046,0,5.349,1.195,6.907,3.586v-0.982
		c0-1.665,1.018-2.497,3.055-2.497c1.027,0,1.771,0.199,2.231,0.598c0.46,0.398,0.691,1.032,0.691,1.899v23.617
		c0,0.886-0.213,1.523-0.638,1.913c-0.425,0.389-1.222,0.584-2.391,0.584c-1.966,0-2.949-0.779-2.949-2.338V488.375z
		 M246.661,475.756c0-1.947-0.545-3.56-1.634-4.835c-1.089-1.274-2.537-1.912-4.344-1.912c-2.055,0-3.648,0.806-4.782,2.417
		c-1.134,1.612-1.7,3.782-1.7,6.509c0,2.852,0.575,5.07,1.727,6.655s2.736,2.378,4.755,2.378c1.842,0,3.298-0.646,4.37-1.939
		c1.071-1.293,1.607-2.896,1.607-4.809V475.756z"/>
	<path d="M266.267,489.783c0,1.665-1.019,2.497-3.055,2.497c-1.966,0-2.949-0.832-2.949-2.497V453.44c0-0.85,0.23-1.461,0.691-1.833
		c0.46-0.372,1.23-0.558,2.311-0.558c1.063,0,1.829,0.19,2.298,0.571c0.469,0.381,0.704,0.987,0.704,1.819V489.783z"/>
</g>
<g enable-background="new    ">
	<path d="M300.75,492.387c-4.817,0-8.625-1.718-11.423-5.153c-2.799-3.437-4.198-8.059-4.198-13.868
		c0-5.667,1.51-10.259,4.53-13.774c3.02-3.516,6.911-5.273,11.676-5.273c2.922,0,5.424,0.536,7.505,1.607s3.122,2.076,3.122,3.015
		c0,0.461-0.168,0.855-0.505,1.183c-0.336,0.328-0.682,0.491-1.036,0.491c-0.213,0-0.403-0.035-0.571-0.105
		c-0.168-0.071-0.536-0.302-1.103-0.691c-2.143-1.522-4.614-2.284-7.412-2.284c-3.826,0-6.912,1.447-9.258,4.344
		c-2.347,2.896-3.52,6.726-3.52,11.489c0,4.924,1.12,8.794,3.361,11.609c2.24,2.816,5.202,4.225,8.886,4.225
		c1.505,0,2.962-0.243,4.37-0.73s2.926-1.386,4.556-2.697c0.496-0.407,0.947-0.61,1.355-0.61c0.407,0,0.734,0.168,0.983,0.505
		c0.248,0.336,0.372,0.69,0.372,1.062c0,0.867-1.205,2.028-3.613,3.479C306.417,491.661,303.726,492.387,300.75,492.387z"/>
	<path d="M339.988,490.341c0,1.116-0.549,1.674-1.647,1.674c-1.151,0-1.727-0.558-1.727-1.674v-15.992
		c0-2.462-0.558-4.339-1.673-5.633c-1.116-1.292-2.754-1.938-4.915-1.938c-2.444,0-4.441,0.867-5.991,2.604
		c-1.55,1.735-2.324,4.091-2.324,7.066v13.894c0,1.116-0.567,1.674-1.7,1.674c-1.116,0-1.674-0.558-1.674-1.674v-37.617
		c0-1.116,0.558-1.674,1.674-1.674c1.133,0,1.7,0.558,1.7,1.674v15.78c0.85-1.523,2.05-2.728,3.6-3.613
		c1.549-0.886,3.263-1.328,5.141-1.328c3.099,0,5.463,0.881,7.093,2.644c1.629,1.763,2.444,4.166,2.444,7.213V490.341z"/>
	<path d="M369.53,490.341c0,1.116-0.567,1.674-1.7,1.674c-1.116,0-1.673-0.558-1.673-1.674v-2.63
		c-0.921,1.559-2.082,2.728-3.48,3.507c-1.399,0.779-3.038,1.169-4.915,1.169c-3.578,0-6.376-1.319-8.395-3.958
		s-3.029-6.137-3.029-10.494c0-4.286,1.032-7.753,3.095-10.4c2.063-2.647,4.972-3.972,8.727-3.972c1.789,0,3.347,0.358,4.676,1.076
		c1.328,0.717,2.435,1.793,3.321,3.228v-2.285c0-1.098,0.558-1.646,1.673-1.646c1.133,0,1.7,0.549,1.7,1.646V490.341z
		 M366.156,475.305c0-2.515-0.744-4.564-2.232-6.15c-1.487-1.585-3.374-2.377-5.658-2.377c-2.692,0-4.792,1.054-6.296,3.161
		c-1.505,2.107-2.258,4.773-2.258,7.996c0,3.489,0.717,6.239,2.152,8.249c1.435,2.011,3.569,3.016,6.403,3.016
		c2.32,0,4.215-0.793,5.685-2.378c1.47-1.585,2.205-3.626,2.205-6.124V475.305z"/>
	<path d="M380.954,490.395c0,1.08-0.567,1.62-1.7,1.62c-1.116,0-1.674-0.54-1.674-1.62V452.67c0-1.08,0.558-1.62,1.674-1.62
		c1.133,0,1.7,0.54,1.7,1.62V490.395z"/>
	<path d="M392.377,490.395c0,1.08-0.567,1.62-1.7,1.62c-1.116,0-1.674-0.54-1.674-1.62V452.67c0-1.08,0.558-1.62,1.674-1.62
		c1.133,0,1.7,0.54,1.7,1.62V490.395z"/>
	<path d="M402.26,479.024c0,2.958,0.85,5.393,2.55,7.306c1.7,1.912,3.86,2.869,6.482,2.869c1.116,0,2.249-0.182,3.4-0.545
		s2.143-0.819,2.976-1.368c0.566-0.372,0.982-0.558,1.248-0.558c0.426,0,0.784,0.186,1.076,0.558
		c0.293,0.372,0.438,0.771,0.438,1.195c0,0.797-0.952,1.647-2.856,2.551c-1.903,0.903-4.016,1.354-6.336,1.354
		c-3.808,0-6.827-1.284-9.059-3.852c-2.231-2.568-3.348-5.995-3.348-10.281c0-4.251,1.098-7.762,3.295-10.534
		c2.195-2.771,5.18-4.157,8.952-4.157c3.329,0,5.946,1.12,7.851,3.36c1.903,2.241,2.855,5.238,2.855,8.993
		c0,1.009-0.226,1.779-0.678,2.311c-0.451,0.532-1.075,0.798-1.872,0.798H402.26z M418.412,475.862c0-2.691-0.66-4.879-1.979-6.562
		s-3.14-2.523-5.46-2.523c-2.426,0-4.419,0.828-5.977,2.483c-1.559,1.656-2.436,3.856-2.631,6.602H418.412z"/>
	<path d="M449.76,490.341c0,1.116-0.549,1.674-1.646,1.674c-1.152,0-1.728-0.558-1.728-1.674v-15.992
		c0-2.462-0.558-4.339-1.673-5.633c-1.116-1.292-2.755-1.938-4.916-1.938c-2.443,0-4.44,0.867-5.99,2.604
		c-1.55,1.735-2.324,4.091-2.324,7.066v13.894c0,1.116-0.567,1.674-1.7,1.674c-1.116,0-1.674-0.558-1.674-1.674v-24.706
		c0-1.134,0.558-1.7,1.674-1.7c1.133,0,1.7,0.566,1.7,1.7v2.869c0.85-1.523,2.05-2.728,3.6-3.613
		c1.549-0.886,3.264-1.328,5.141-1.328c3.1,0,5.463,0.881,7.094,2.644c1.629,1.763,2.443,4.166,2.443,7.213V490.341z"/>
	<path d="M479.301,489.358c0,4.64-1.053,8.129-3.16,10.467c-2.108,2.338-5.189,3.507-9.246,3.507c-1.947,0-3.922-0.425-5.924-1.275
		c-2.002-0.85-3.002-1.691-3.002-2.523c0-0.549,0.15-0.996,0.451-1.342s0.62-0.518,0.957-0.518c0.336,0,0.841,0.203,1.514,0.61
		c1.205,0.673,2.254,1.146,3.148,1.422c0.895,0.274,1.882,0.411,2.963,0.411c2.975,0,5.207-0.828,6.693-2.483
		c1.488-1.656,2.232-4.141,2.232-7.452v-2.63c-0.779,1.487-1.891,2.666-3.334,3.533s-3.096,1.302-4.955,1.302
		c-3.506,0-6.305-1.288-8.395-3.865s-3.135-6.105-3.135-10.587c0-4.463,1.076-7.974,3.228-10.533s5.052-3.839,8.7-3.839
		c1.683,0,3.21,0.368,4.583,1.103c1.372,0.735,2.475,1.784,3.308,3.148v-2.232c0-1.098,0.575-1.646,1.727-1.646
		c1.098,0,1.646,0.549,1.646,1.646V489.358z M475.928,475.305c0-2.515-0.744-4.564-2.232-6.15c-1.486-1.585-3.373-2.377-5.658-2.377
		c-2.586,0-4.658,0.979-6.217,2.936s-2.338,4.697-2.338,8.222c0,3.507,0.754,6.261,2.259,8.263c1.505,2.001,3.604,3.002,6.296,3.002
		c2.355,0,4.26-0.811,5.712-2.432c1.452-1.62,2.179-3.679,2.179-6.176V475.305z"/>
	<path d="M489.184,479.024c0,2.958,0.851,5.393,2.551,7.306c1.7,1.912,3.861,2.869,6.482,2.869c1.115,0,2.249-0.182,3.4-0.545
		c1.15-0.363,2.143-0.819,2.975-1.368c0.567-0.372,0.984-0.558,1.25-0.558c0.424,0,0.783,0.186,1.075,0.558s0.438,0.771,0.438,1.195
		c0,0.797-0.952,1.647-2.855,2.551c-1.904,0.903-4.017,1.354-6.336,1.354c-3.809,0-6.828-1.284-9.06-3.852
		c-2.231-2.568-3.348-5.995-3.348-10.281c0-4.251,1.099-7.762,3.294-10.534c2.196-2.771,5.182-4.157,8.953-4.157
		c3.33,0,5.946,1.12,7.851,3.36c1.903,2.241,2.856,5.238,2.856,8.993c0,1.009-0.227,1.779-0.678,2.311
		c-0.452,0.532-1.076,0.798-1.873,0.798H489.184z M505.336,475.862c0-2.691-0.66-4.879-1.979-6.562
		c-1.32-1.683-3.14-2.523-5.459-2.523c-2.428,0-4.42,0.828-5.979,2.483c-1.559,1.656-2.436,3.856-2.629,6.602H505.336z"/>
</g>
</svg>
