<?xml version="1.0" encoding="utf-8"?>
<!-- Generator: Adobe Illustrator 16.0.0, SVG Export Plug-In . SVG Version: 6.00 Build 0)  -->
<!DOCTYPE svg PUBLIC "-//W3C//DTD SVG 1.1//EN" "http://www.w3.org/Graphics/SVG/1.1/DTD/svg11.dtd">
<svg version="1.1" id="Layer_1" xmlns="http://www.w3.org/2000/svg" xmlns:xlink="http://www.w3.org/1999/xlink" x="0px" y="0px"
	 width="865.401px" height="135px" viewBox="-96.5 406 865.401 135" enable-background="new -96.5 406 865.401 135"
	 xml:space="preserve">
<g id="_x23_fefffeff">
	<path fill="#FEFFFE" d="M-29.734,427.539c9.083-0.74,18.372,1.271,26.349,5.668c13.604,7.331,23.243,21.629,24.611,37.061
		c1.031,9.511-1,19.31-5.626,27.673c-4.629,8.426-11.872,15.401-20.493,19.67c-6.765,3.409-14.38,5.133-21.958,4.967
		c-10.379-0.088-20.656-3.801-28.781-10.246c-6.992-5.549-12.401-13.066-15.362-21.494c-4.617-12.959-3.257-27.94,3.786-39.779
		c4.729-8.207,12.021-14.885,20.547-18.993C-41.361,429.527-35.596,427.959-29.734,427.539 M-38.149,432.062
		c-8.192,2.212-15.84,7.03-20.698,14.071c-3.272,4.629-5.155,10.109-6.122,15.658c-0.459,3.463-0.65,7.239,1.082,10.402
		c0.801,1.571,2.2,2.76,2.889,4.391c0.656,1.447,0.19,3.406-1.221,4.23c-1.323,0.948-3.194,0.586-4.39-0.402
		c-1.726-1.354-2.457-3.562-2.825-5.646c-0.729-4.694,0.217-9.444,1.414-13.979c-0.937,0.391-0.801,1.686-1.154,2.508
		c-2.046,7.932-2.031,16.41,0.211,24.301c2.118,7.535,6.442,14.533,12.685,19.332c4.702,3.722,10.464,5.836,16.295,6.98
		c3.518,0.592,7.343,0.828,10.639-0.773c1.635-0.819,2.859-2.246,4.46-3.112c1.348-0.701,3.104-0.472,4.158,0.641
		c1.218,1.215,1.238,3.297,0.247,4.656c-1.069,1.457-2.792,2.268-4.493,2.733c-3.753,0.941-7.678,0.519-11.434-0.166
		c-1.375-0.217-2.677-0.826-4.082-0.823c0.752,0.743,1.855,0.872,2.825,1.163c7.37,1.814,15.192,1.828,22.574,0.062
		c8.494-2.043,16.532-6.822,21.578-14.066c3.27-4.496,5.07-9.866,6.183-15.264c0.592-3.986,0.892-8.492-1.529-11.967
		c-1.127-1.658-2.938-3.254-2.574-5.469c0.154-2.07,2.472-3.38,4.375-2.705c2.487,0.807,3.65,3.473,4.158,5.836
		c0.967,4.895,0.006,9.926-1.287,14.666c0.338-0.052,0.547-0.242,0.625-0.568c2.23-6.961,2.617-14.471,1.33-21.655
		c-1.478-8.421-5.37-16.634-11.845-22.354c-3.887-3.545-8.676-6.043-13.74-7.424c-4.218-1.254-8.784-2.121-13.138-1.043
		c-2.143,0.469-3.808,1.971-5.524,3.229c-1.453,1.121-3.78,1.196-5.091-0.189c-1.182-1.258-1.073-3.336-0.054-4.659
		c1.354-1.783,3.592-2.607,5.726-2.992c3.406-0.508,6.886-0.175,10.247,0.496c1.333,0.229,2.577,0.843,3.935,0.943
		c-0.281-0.236-0.557-0.499-0.913-0.611C-20.847,429.842-29.839,429.742-38.149,432.062z"/>
	<path fill="#FEFFFE" d="M-37.025,448.908c1.837-0.967,4.185-1.258,6.059-0.236c1.499,0.858,2.084,2.717,1.937,4.357
		c-0.266,3.258-1.84,6.262-3.819,8.805c-2.139,2.588-4.777,4.877-7.938,6.104c0.242,1.01,1.003,2.086,2.146,2.079
		c2,0.072,3.735-1.19,5.173-2.446c1.034-0.786,1.088-2.161,1.571-3.271c0.704-1.733,1.662-3.584,3.409-4.461
		c0.819-0.435,2.07-0.52,2.635,0.354c0.617,1.18,0.058,2.528-0.535,3.596c-0.81,1.548-2.091,2.76-3.109,4.152
		c-0.384,1.293-0.453,2.651-0.478,3.993c1.414-0.625,2.683-1.517,4.016-2.29c2.317-1.498,4.723-2.895,6.874-4.629
		c0.248-0.837-0.091-1.749-0.052-2.619c-0.133-4.213,1.324-8.529,4.194-11.646c1.786-1.883,4.476-3.21,7.104-2.548
		c1.578,0.287,2.813,1.568,3.258,3.075c0.562,2.274-0.218,4.653-1.414,6.591c-2.061,3.224-5.059,5.687-8.092,7.953
		c0.404,1.009,0.981,2.153,2.072,2.528c1.562-0.3,3.152-0.726,4.75-0.407c1.07,0.224,2.354,0.544,2.877,1.609
		c0.483,1.039-0.44,2.104-1.39,2.428c-2.019,0.658-4.155,0.286-6.216,0.13c-2.453,0.586-4.587,2.209-6.116,4.186
		c-2.375,3.121-3.108,7.252-2.593,11.08c0.493,3.176,2.089,6.375,4.893,8.103c3.158,2.021,7.709,1.592,10.325-1.138
		c2.469-2.547,3.248-6.604,1.873-9.875c-0.583-1.438-1.837-2.664-3.408-2.91c-1.834-0.414-4.013,0.779-4.278,2.729
		c-0.267,1.5,0.785,2.74,1.674,3.813c0.686,0.709,0.768,2.021-0.085,2.636c-1.32,0.901-3.151,0.268-4.203-0.779
		c-2.596-2.562-2.514-7.189-0.027-9.807c3.161-3.625,9.455-3.695,12.688-0.123c3.457,3.828,3.892,9.965,1.232,14.354
		c-1.994,3.443-5.59,5.93-9.542,6.492c-4.3,0.639-8.944-0.725-11.966-3.912c-5.911-6.02-5.817-16.604-0.179-22.771
		c1.508-1.806,3.499-3.089,5.497-4.279c-0.433-0.583-0.886-1.15-1.345-1.716c-3.88,2.812-7.938,5.37-12.114,7.718
		c-0.707,0.26-0.58,1.111-0.683,1.713c-0.372,5.139-0.81,10.496-3.366,15.09c-1.729,3.246-4.342,6.219-7.847,7.556
		c-2.78,1.049-6.143,1.143-8.693-0.548c-2.441-1.532-3.55-4.59-3.363-7.377c0.387-3.545,2.402-6.743,4.965-9.147
		c3.517-3.213,7.781-5.435,11.966-7.64c0.852-0.475,1.78-0.834,2.541-1.446c0.281-0.769,0.323-1.595,0.402-2.396
		c-2.169,1.312-4.91,2.365-7.406,1.359c-2.04-0.785-3.309-2.738-3.958-4.738c-1.925-0.205-3.862-0.973-5.088-2.524
		c-2.14-2.566-2.275-6.468-0.729-9.358c0.517-1.042,1.677-1.602,2.813-1.532c0.22,0.447,0.634,0.893,0.483,1.437
		c-0.338,1.877-0.998,3.824-0.375,5.727c0.309,1.299,1.384,2.335,2.72,2.514c0.284-3.075,0.882-6.164,2.33-8.93
		C-41.594,452.975-39.732,450.367-37.025,448.908 M-35.215,451.918c-1.825,1.242-2.938,3.227-3.898,5.158
		c-1.034,2.178-1.868,4.52-1.961,6.949c0.698-0.31,1.357-0.71,1.922-1.228c2.285-1.988,4.282-4.356,5.62-7.089
		c0.472-0.988,0.879-2.109,0.611-3.216C-33.269,451.598-34.481,451.361-35.215,451.918 M-11.595,452.866
		c-2.133,2.482-3.305,5.777-3.27,9.05c2.406-1.984,4.624-4.312,6.119-7.07c0.43-0.883,0.998-2.324-0.091-2.967
		C-9.828,451.367-10.945,452.117-11.595,452.866 M-43.941,484.609c-2.097,1.883-4.143,4.075-4.904,6.858
		c-0.366,1.492-0.45,3.377,0.804,4.49c1.323,1.207,3.318,0.848,4.847,0.273c2.949-1.136,4.729-3.99,5.929-6.765
		c1.399-3.444,2.266-7.113,2.62-10.815C-37.995,480.201-41.123,482.236-43.941,484.609z"/>
</g>
<g id="_x23_000000ff">
	<path d="M-29.722,425.14c9.866-0.753,19.934,1.555,28.498,6.507c6.85,3.948,12.772,9.521,17.061,16.172
		c5.324,8.132,8.14,17.863,8.059,27.581c-0.063,10.155-3.297,20.274-9.204,28.547C8.7,512.426-0.012,518.96-9.844,522.301
		c-8.732,3.021-18.302,3.496-27.313,1.479c-9.449-2.107-18.227-7.078-24.94-14.049c-7.116-7.369-11.933-16.964-13.404-27.113
		c-1.447-9.041-0.25-18.471,3.282-26.907c3.278-7.848,8.618-14.804,15.302-20.052C-49.172,429.549-39.569,425.822-29.722,425.14
		 M-29.734,427.539c-5.862,0.42-11.627,1.988-16.927,4.523c-8.527,4.108-15.818,10.786-20.547,18.993
		c-7.043,11.838-8.403,26.82-3.786,39.779c2.961,8.428,8.37,15.945,15.362,21.494c8.125,6.445,18.402,10.158,28.781,10.246
		c7.578,0.166,15.193-1.558,21.958-4.967c8.621-4.269,15.864-11.244,20.493-19.671c4.626-8.362,6.657-18.161,5.626-27.672
		c-1.368-15.432-11.008-29.729-24.611-37.061C-11.362,428.811-20.651,426.799-29.734,427.539z"/>
	<path d="M-38.149,432.062c8.31-2.32,17.302-2.222,25.521,0.432c0.356,0.112,0.632,0.375,0.913,0.611
		c-1.357-0.102-2.602-0.715-3.935-0.943c-3.36-0.671-6.841-1.004-10.247-0.496c-2.133,0.385-4.372,1.209-5.726,2.992
		c-1.019,1.323-1.127,3.401,0.054,4.659c1.312,1.387,3.638,1.312,5.091,0.189c1.716-1.26,3.381-2.762,5.524-3.229
		c4.354-1.078,8.92-0.211,13.138,1.043c5.064,1.381,9.854,3.879,13.74,7.424c6.475,5.721,10.367,13.934,11.845,22.354
		c1.287,7.186,0.9,14.694-1.33,21.655c-0.078,0.326-0.287,0.519-0.625,0.568c1.293-4.74,2.254-9.771,1.287-14.666
		c-0.508-2.363-1.671-5.029-4.158-5.836c-1.903-0.675-4.221,0.635-4.375,2.705c-0.363,2.215,1.447,3.811,2.574,5.469
		c2.421,3.475,2.121,7.979,1.529,11.967c-1.112,5.396-2.913,10.769-6.183,15.264c-5.046,7.244-13.084,12.023-21.578,14.066
		c-7.382,1.766-15.204,1.752-22.574-0.062c-0.97-0.291-2.073-0.421-2.825-1.164c1.405-0.002,2.708,0.606,4.082,0.823
		c3.756,0.685,7.681,1.107,11.434,0.166c1.701-0.467,3.423-1.276,4.493-2.733c0.991-1.359,0.971-3.441-0.247-4.656
		c-1.055-1.111-2.81-1.342-4.158-0.641c-1.601,0.866-2.825,2.293-4.46,3.112c-3.296,1.603-7.122,1.365-10.639,0.773
		c-5.832-1.146-11.594-3.26-16.295-6.98c-6.243-4.799-10.567-11.797-12.685-19.332c-2.242-7.891-2.257-16.368-0.211-24.301
		c0.354-0.822,0.217-2.117,1.154-2.508c-1.197,4.533-2.143,9.283-1.414,13.979c0.368,2.084,1.1,4.293,2.825,5.646
		c1.196,0.988,3.067,1.352,4.39,0.402c1.411-0.824,1.876-2.783,1.221-4.23c-0.688-1.631-2.088-2.818-2.889-4.391
		c-1.731-3.163-1.541-6.939-1.082-10.402c0.967-5.549,2.85-11.029,6.122-15.658C-53.989,439.094-46.341,434.274-38.149,432.062
		 M-37.025,448.908c-2.708,1.459-4.569,4.065-5.932,6.756c-1.447,2.766-2.046,5.854-2.33,8.93c-1.335-0.179-2.411-1.215-2.72-2.514
		c-0.623-1.901,0.037-3.85,0.375-5.728c0.151-0.544-0.263-0.987-0.483-1.436c-1.136-0.069-2.297,0.49-2.813,1.532
		c-1.547,2.892-1.411,6.792,0.729,9.357c1.227,1.554,3.164,2.32,5.088,2.525c0.649,2,1.918,3.953,3.958,4.738
		c2.496,1.006,5.236-0.049,7.406-1.359c-0.079,0.803-0.121,1.629-0.402,2.396c-0.761,0.612-1.689,0.973-2.541,1.446
		c-4.185,2.205-8.449,4.427-11.966,7.64c-2.562,2.403-4.578,5.604-4.965,9.147c-0.187,2.787,0.922,5.844,3.363,7.377
		c2.55,1.689,5.914,1.597,8.693,0.547c3.505-1.336,6.119-4.309,7.847-7.555c2.556-4.594,2.995-9.951,3.366-15.09
		c0.103-0.603-0.024-1.453,0.683-1.713c4.176-2.349,8.234-4.904,12.114-7.718c0.459,0.564,0.912,1.133,1.345,1.716
		c-1.998,1.19-3.989,2.475-5.497,4.278c-5.638,6.166-5.732,16.752,0.179,22.771c3.021,3.188,7.666,4.551,11.966,3.912
		c3.952-0.562,7.548-3.049,9.542-6.492c2.659-4.389,2.225-10.525-1.232-14.354c-3.233-3.572-9.527-3.503-12.688,0.122
		c-2.486,2.617-2.568,7.244,0.027,9.808c1.052,1.047,2.883,1.682,4.203,0.779c0.853-0.613,0.771-1.927,0.085-2.636
		c-0.889-1.074-1.94-2.313-1.674-3.813c0.266-1.949,2.444-3.144,4.278-2.729c1.571,0.246,2.825,1.474,3.408,2.91
		c1.375,3.271,0.596,7.328-1.873,9.875c-2.616,2.729-7.167,3.158-10.325,1.137c-2.804-1.727-4.399-4.926-4.893-8.102
		c-0.516-3.828,0.218-7.959,2.593-11.08c1.529-1.977,3.663-3.6,6.116-4.186c2.061,0.156,4.197,0.528,6.216-0.131
		c0.949-0.322,1.873-1.388,1.39-2.427c-0.522-1.065-1.807-1.387-2.877-1.609c-1.598-0.317-3.188,0.107-4.75,0.407
		c-1.091-0.375-1.668-1.521-2.072-2.528c3.033-2.268,6.031-4.729,8.092-7.953c1.196-1.938,1.977-4.315,1.414-6.591
		c-0.444-1.508-1.68-2.788-3.258-3.075c-2.628-0.662-5.317,0.665-7.104,2.548c-2.87,3.115-4.327,7.433-4.194,11.645
		c-0.039,0.871,0.3,1.783,0.052,2.62c-2.151,1.734-4.557,3.13-6.874,4.629c-1.333,0.773-2.602,1.665-4.016,2.29
		c0.024-1.342,0.094-2.7,0.478-3.994c1.019-1.393,2.299-2.604,3.109-4.151c0.592-1.066,1.151-2.416,0.535-3.596
		c-0.565-0.873-1.816-0.788-2.635-0.354c-1.747,0.877-2.705,2.727-3.409,4.461c-0.483,1.108-0.538,2.483-1.571,3.271
		c-1.438,1.256-3.172,2.52-5.173,2.446c-1.142,0.006-1.904-1.069-2.146-2.079c3.161-1.228,5.799-3.517,7.938-6.104
		c1.979-2.543,3.554-5.547,3.819-8.805c0.148-1.642-0.438-3.499-1.937-4.357C-32.84,447.65-35.188,447.941-37.025,448.908z"/>
	<path d="M-35.215,451.918c0.734-0.557,1.946-0.32,2.293,0.576c0.269,1.105-0.139,2.228-0.611,3.216
		c-1.338,2.731-3.335,5.101-5.62,7.089c-0.565,0.518-1.224,0.918-1.922,1.228c0.094-2.431,0.928-4.771,1.961-6.949
		C-38.152,455.145-37.04,453.16-35.215,451.918z"/>
	<path d="M-11.595,452.866c0.65-0.749,1.768-1.499,2.759-0.987c1.089,0.644,0.521,2.084,0.091,2.967
		c-1.495,2.76-3.713,5.086-6.119,7.07C-14.9,458.645-13.728,455.35-11.595,452.866z"/>
	<path d="M-43.941,484.609c2.819-2.373,5.946-4.408,9.294-5.957c-0.354,3.703-1.221,7.371-2.62,10.815
		c-1.2,2.773-2.979,5.629-5.929,6.765c-1.529,0.573-3.523,0.934-4.847-0.273c-1.254-1.113-1.169-2.998-0.804-4.49
		C-48.084,488.686-46.039,486.492-43.941,484.609z"/>
</g>
<text transform="matrix(1 0 0 1 35.2471 491.8555)" font-family="'GEInspira-Bold'" font-size="54.4076">GE Digital</text>
<text transform="matrix(1 0 0 1 270.0659 491.8555)" font-family="'GEInspira'" font-size="54.4076"> Charity Challenge</text>
</svg>
